<svg width="120" height="51" viewBox="0 0 120 51" fill="none" xmlns="http://www.w3.org/2000/svg">
<path d="M24.9301 47.8072C15.0313 48.5404 6.08582 40.9881 3.81278 29.8428C2.63959 24.2702 3.37283 18.331 5.79252 13.4183C8.13889 8.65223 12.1717 4.98603 16.5711 3.07961C17.3777 2.71299 18.1843 2.34637 18.9908 2.1264C19.2841 2.05307 19.5041 1.75978 19.2108 1.90642C14.8847 3.22626 10.5586 5.64594 7.5523 9.53211C4.54602 13.345 3.00621 18.331 2.71292 23.4637C2.27297 33.8023 7.91892 43.4811 16.2778 47.074C19.0642 48.2471 21.9971 48.6138 24.9301 48.3938V47.8072Z" fill="#EE4600"/>
<path d="M14.5181 50.6668C14.5181 50.6668 14.6647 50.6668 14.8847 50.7402C15.1047 50.8135 15.4713 50.8135 15.9112 50.8868C16.3512 50.9601 16.8644 50.9601 17.3777 50.9601C17.891 50.9601 18.4776 50.9601 19.0642 50.8135C19.6507 50.7402 20.164 50.5935 20.6773 50.4469C21.1905 50.3002 21.6305 50.0803 21.9971 49.8603C22.7303 49.4203 23.1703 48.8337 23.097 48.3205C21.7038 48.4671 20.5306 48.6138 19.5041 48.7604C19.2108 48.8337 18.9908 48.9071 18.7709 48.9071C18.5509 48.9804 18.3309 48.9804 18.0376 49.0537C17.5977 49.2004 17.1577 49.2737 16.7911 49.4203C16.4245 49.567 16.0579 49.7136 15.7646 49.787C15.4713 49.9336 15.2513 50.0069 15.0313 50.1536C14.738 50.5202 14.5181 50.6668 14.5181 50.6668Z" fill="#EE4600"/>
<path d="M9.75208 47.5872C9.75208 47.5872 9.89872 47.6606 10.1187 47.7339C10.3387 47.8072 10.632 48.0272 11.0719 48.1738C11.4385 48.3205 11.9518 48.4671 12.3917 48.6138C12.6117 48.6871 12.905 48.7604 13.125 48.8338C13.4183 48.9071 13.6382 48.9071 13.9315 48.9804C14.2248 49.0537 14.4448 49.0537 14.7381 49.0537C15.0314 49.0537 15.2514 49.0537 15.4713 49.0537C15.9846 49.0537 16.4246 48.9804 16.7912 48.8338C17.1578 48.6871 17.5244 48.5405 17.7444 48.3938C17.9644 48.1738 18.111 47.9539 18.111 47.6606C16.7912 47.3673 15.6913 47.2206 14.6648 47.1473C14.1515 47.074 13.7116 47.074 13.2716 47.074C13.0517 47.074 12.8317 47.074 12.6117 47.074C12.3917 47.074 12.2451 47.074 12.0251 47.074C11.2919 47.1473 10.7053 47.2206 10.2653 47.2939C9.97205 47.5139 9.75208 47.5872 9.75208 47.5872Z" fill="#EE4600"/>
<path d="M5.7926 43.4078C5.7926 43.4078 5.86593 43.4811 6.0859 43.6277C6.30587 43.7744 6.52584 43.9944 6.89246 44.2143C7.25908 44.4343 7.6257 44.7276 8.06564 44.9476C8.50559 45.2409 8.94553 45.4608 9.4588 45.6808C9.67877 45.8275 9.97207 45.9008 10.192 45.9741C10.412 46.0474 10.632 46.1208 10.9253 46.1941C11.3652 46.2674 11.8052 46.4141 12.1718 46.3407C12.5384 46.3407 12.905 46.2674 13.125 46.1941C13.345 46.0474 13.5649 45.9008 13.6383 45.6075C12.4651 45.0209 11.5119 44.581 10.5587 44.2143C9.67877 43.8477 8.87221 43.7011 8.13897 43.5544C7.77235 43.4811 7.47905 43.4078 7.18576 43.4078C6.89246 43.4078 6.67249 43.3344 6.45252 43.3344C6.01257 43.4078 5.7926 43.4078 5.7926 43.4078Z" fill="#EE4600"/>
<path d="M2.71295 38.3484C2.71295 38.3484 2.78628 38.4217 2.93292 38.6417C3.07957 38.8617 3.29954 39.0816 3.51951 39.3749C3.66616 39.5216 3.81281 39.6682 3.95946 39.8149C4.10611 39.9615 4.25275 40.1082 4.47273 40.3282C4.83935 40.6948 5.20597 40.9881 5.57258 41.2814C5.9392 41.5747 6.37915 41.868 6.74577 42.0879C7.18571 42.3079 7.55233 42.4545 7.91895 42.6012C8.65219 42.8212 9.16546 42.7478 9.38543 42.3079C8.43222 41.428 7.62565 40.7681 6.81909 40.2548C6.45247 39.9615 6.08585 39.7416 5.71923 39.5216C5.35261 39.3016 5.05932 39.155 4.76602 39.0083C4.17943 38.715 3.66616 38.5684 3.29954 38.4217C2.93292 38.3484 2.71295 38.3484 2.71295 38.3484Z" fill="#EE4600"/>
<path d="M0.80658 32.6291C0.80658 32.6291 0.80658 32.6291 0.879904 32.7025C0.879904 32.7758 0.953227 32.8491 1.02655 32.9224C1.09988 33.1424 1.24652 33.4357 1.46649 33.729C1.61314 34.0956 1.90644 34.4622 2.12641 34.8289C2.34638 35.1955 2.63968 35.6354 2.93297 36.002C3.22627 36.3687 3.59289 36.7353 3.88618 37.0286C4.17948 37.3219 4.5461 37.6152 4.8394 37.7618C5.42599 38.1284 5.93925 38.2018 6.23255 37.9085C5.57264 36.8819 4.91272 36.0754 4.32613 35.3421C4.03283 34.9755 3.73954 34.6822 3.44624 34.3889C3.15295 34.0956 2.93297 33.8756 2.63968 33.6557C2.12641 33.2157 1.68647 32.9224 1.39317 32.7758C1.24652 32.7025 1.09988 32.6291 1.02655 32.5558C0.80658 32.6291 0.80658 32.6291 0.80658 32.6291Z" fill="#EE4600"/>
<path d="M0 26.5433C0 26.5433 0 26.6899 0.0733239 26.9099C0.146648 27.1299 0.219972 27.4232 0.293296 27.7898C0.439944 28.1564 0.513267 28.523 0.659915 28.963C0.806563 29.4029 1.02654 29.8429 1.17318 30.2828C1.61313 31.1627 2.05307 31.8959 2.56634 32.4092C3.07961 32.9225 3.51955 33.1424 3.81284 32.8491C3.73952 32.5558 3.6662 32.2625 3.59287 32.0426C3.44622 31.8226 3.3729 31.5293 3.29958 31.3093C3.07961 30.8694 2.85963 30.4295 2.63966 29.9895C2.19972 29.1829 1.75977 28.5964 1.39315 28.0831C1.17318 27.8631 1.02654 27.6431 0.879887 27.4232C0.733239 27.2032 0.586591 27.0565 0.439944 26.9832C0.146648 26.6899 0 26.5433 0 26.5433Z" fill="#EE4600"/>
<path d="M0.43988 20.5307C0.43988 20.5307 0.43988 20.6774 0.43988 20.824C0.43988 21.044 0.43988 21.3373 0.513204 21.6306C0.513204 21.9972 0.586528 22.3638 0.659852 22.8038C0.659852 23.0237 0.733176 23.2437 0.733176 23.4637C0.8065 23.6836 0.8065 23.9036 0.879824 24.1236C0.953148 24.3436 0.953148 24.5635 1.02647 24.7835C1.0998 25.0035 1.17312 25.2234 1.24644 25.3701C1.39309 25.7367 1.53974 26.1033 1.68639 26.3966C2.05301 26.9832 2.41963 27.2765 2.71292 27.1299C2.41963 24.8568 1.90636 23.317 1.31977 22.1438C1.0998 21.5572 0.8065 21.1906 0.659852 20.8973C0.586528 20.7507 0.513204 20.6774 0.43988 20.604C0.43988 20.5307 0.43988 20.5307 0.43988 20.5307Z" fill="#EE4600"/>
<path d="M1.97974 14.7381C1.97974 14.7381 1.90641 15.1781 1.83309 15.7646C1.83309 16.0579 1.75977 16.4246 1.75977 16.8645C1.75977 17.2311 1.75977 17.6711 1.75977 18.111C1.75977 18.9909 1.90641 19.7975 2.12639 20.3841C2.19971 20.6773 2.34636 20.8973 2.493 21.1173C2.63965 21.2639 2.7863 21.3373 2.93295 21.3373C2.93295 20.824 3.00627 20.3107 3.00627 19.8708C3.00627 19.4308 3.00627 18.9909 2.93295 18.551C2.93295 18.1843 2.85962 17.7444 2.7863 17.4511C2.71298 17.0845 2.71298 16.7912 2.63965 16.4979C2.493 15.9113 2.34636 15.4713 2.27303 15.1781C2.05306 14.8848 1.97974 14.7381 1.97974 14.7381Z" fill="#EE4600"/>
<path d="M4.61941 9.60545C4.61941 9.60545 4.61941 9.67877 4.54609 9.82542C4.47276 9.97206 4.39944 10.192 4.32611 10.4853C4.25279 10.7786 4.10614 11.0719 4.03282 11.4385C3.95949 11.8052 3.88617 12.1718 3.81285 12.5384C3.73952 12.905 3.73952 13.2716 3.6662 13.6383C3.6662 14.0049 3.6662 14.3715 3.6662 14.6648C3.73952 15.2514 3.88617 15.6913 4.17947 15.6913C4.69273 13.8582 4.83938 12.3184 4.83938 11.2919C4.83938 10.7786 4.76606 10.3387 4.69273 10.0454C4.61941 9.75209 4.61941 9.60545 4.61941 9.60545Z" fill="#EE4600"/>
<path d="M8.139 5.27933C8.139 5.27933 8.06568 5.35266 7.99236 5.4993C7.91903 5.64595 7.77238 5.7926 7.69906 6.01257C7.40576 6.45251 7.11247 7.11243 6.8925 7.69902C6.74585 8.06564 6.5992 8.43226 6.52588 8.72556C6.45255 9.01885 6.37923 9.38547 6.37923 9.60544C6.30591 10.1187 6.37923 10.5587 6.67253 10.7053C7.47909 9.1655 7.91903 7.91899 8.06568 6.89246C8.139 6.37919 8.21233 6.01257 8.21233 5.71928C8.139 5.42598 8.139 5.27933 8.139 5.27933Z" fill="#EE4600"/>
<path d="M12.3918 2.05307C12.3918 2.05307 12.1718 2.27304 11.8785 2.63966C11.7318 2.78631 11.5119 2.93296 11.3652 3.15293C11.2186 3.3729 10.9986 3.59287 10.852 3.88617C10.7053 4.17946 10.4853 4.39944 10.412 4.69273C10.2654 4.9127 10.192 5.206 10.1187 5.42597C9.97207 5.86591 9.97207 6.23253 10.1187 6.45251C11.1452 5.27932 11.7318 4.25279 12.0985 3.44622C12.3184 2.63966 12.3918 2.05307 12.3918 2.05307Z" fill="#EE4600"/>
<path d="M17.1578 3.8147e-06C17.1578 3.8147e-06 16.9378 0.146652 16.5712 0.366623C16.2779 0.586595 15.838 0.879891 15.398 1.24651C15.178 1.46648 15.0314 1.61313 14.8114 1.8331C14.6648 2.05307 14.5181 2.19972 14.4448 2.41969C14.2248 2.78631 14.1515 3.15293 14.2982 3.3729C14.5915 3.22626 14.8114 3.00628 15.1047 2.78631C15.3247 2.56634 15.5447 2.41969 15.7646 2.19972C15.9846 1.97975 16.1313 1.8331 16.2779 1.68645C16.4246 1.53981 16.5712 1.31983 16.6445 1.17319C16.8645 0.806567 17.0111 0.586595 17.0845 0.366623C17.0845 0.146652 17.1578 3.8147e-06 17.1578 3.8147e-06Z" fill="#EE4600"/>
<path d="M17.3044 42.3079C17.3044 42.3079 17.3778 42.3812 17.5244 42.5279C17.6711 42.6745 17.891 42.8212 18.111 43.0411C18.4043 43.2611 18.6976 43.4811 18.9909 43.701C19.3575 43.921 19.6508 44.2143 20.0908 44.5076C20.4574 44.8009 20.824 45.0209 21.1906 45.3142C21.5572 45.6075 21.9239 45.8274 22.2171 46.1207C22.8037 46.634 23.2437 47.2206 23.097 47.7339C21.7772 47.5872 20.6773 47.1473 19.8708 46.5607C19.6508 46.414 19.5042 46.2674 19.2842 46.1207C19.1375 45.9741 18.9176 45.8274 18.7709 45.6075C18.4776 45.3142 18.2577 44.9476 18.0377 44.6543C17.8177 44.361 17.6711 43.9943 17.5977 43.7744C17.5244 43.4811 17.3778 43.2611 17.3778 43.0411C17.3044 42.6012 17.3044 42.3079 17.3044 42.3079Z" fill="#EE4600"/>
<path d="M13.9315 40.4748C13.9315 40.4748 14.2248 40.8414 14.5914 41.3547C14.8114 41.5746 15.0314 41.9413 15.3247 42.2346C15.4713 42.3812 15.618 42.5279 15.7646 42.7478C15.9113 42.8945 16.0579 43.1144 16.2046 43.2611C16.3512 43.4077 16.4979 43.6277 16.6445 43.7744C16.7912 43.921 16.9378 44.141 17.0844 44.2876C17.3777 44.5809 17.671 44.9475 17.891 45.3142C18.111 45.6075 18.2576 45.9741 18.4043 46.2674C18.4776 46.5607 18.5509 46.854 18.4043 47.0739C17.1578 46.634 16.2779 45.9008 15.618 45.1675C15.3247 44.8009 15.0314 44.4343 14.8114 43.9943C14.7381 43.7744 14.5914 43.6277 14.5181 43.4077C14.4448 43.1878 14.3715 43.0411 14.2981 42.8945C14.0782 42.2346 14.0048 41.5746 14.0048 41.208C13.9315 40.7681 13.9315 40.4748 13.9315 40.4748Z" fill="#EE4600"/>
<path d="M10.9985 37.8351C10.9985 37.8351 11.0719 37.9085 11.1452 38.1284C11.2185 38.2751 11.3652 38.5684 11.4385 38.8617C11.5851 39.155 11.7318 39.5216 11.9517 39.8149C12.0984 40.1815 12.3184 40.5481 12.5383 40.9881C12.6117 41.208 12.7583 41.3547 12.8316 41.5747C12.905 41.7946 13.0516 41.9413 13.1249 42.1612C13.3449 42.5279 13.4916 42.9678 13.6382 43.2611C13.7848 43.6277 13.8582 43.921 13.9315 44.2876C13.9315 44.5809 13.9315 44.8742 13.7848 45.0209C12.7583 44.2876 12.0251 43.3344 11.5851 42.5279C11.1452 41.648 10.9252 40.8414 10.8519 40.1082C10.7786 39.7416 10.7786 39.4483 10.7786 39.155C10.7786 38.8617 10.7786 38.6417 10.8519 38.4217C10.9252 38.0551 10.9985 37.8351 10.9985 37.8351Z" fill="#EE4600"/>
<path d="M8.65222 34.3889C8.65222 34.3889 8.65222 34.4622 8.72555 34.6822C8.72555 34.8289 8.79887 35.1222 8.8722 35.4154C8.94552 35.5621 8.94552 35.7087 9.01884 35.9287C9.09217 36.0754 9.09217 36.2953 9.16549 36.442C9.23882 36.8086 9.38546 37.2485 9.53211 37.6885C9.67876 38.1284 9.75208 38.5684 9.89873 38.935C10.0454 39.3749 10.1187 39.7416 10.192 40.1082C10.3387 40.8414 10.3387 41.428 9.97205 41.7213C9.16549 40.7681 8.72555 39.7416 8.43225 38.8617C8.2856 38.4217 8.21228 37.9818 8.21228 37.5418C8.21228 37.1019 8.21228 36.7353 8.21228 36.442C8.2856 35.7821 8.43225 35.2688 8.50558 34.9022C8.50558 34.6089 8.65222 34.3889 8.65222 34.3889Z" fill="#EE4600"/>
<path d="M6.96576 30.4294C6.96576 30.5761 6.96576 30.6494 6.96576 30.7227C6.96576 30.8694 6.96576 31.1627 6.96576 31.456C6.96576 31.7493 7.03909 32.1159 7.03909 32.4825C7.03909 32.8491 7.11241 33.2891 7.11241 33.729C7.18574 34.1689 7.18574 34.5356 7.18574 34.9755C7.18574 35.4154 7.18574 35.7821 7.18574 36.1487C7.18574 36.8819 7.03909 37.3952 6.67247 37.6152C6.1592 36.5153 5.93923 35.4888 5.86591 34.6089C5.86591 34.1689 5.86591 33.729 5.86591 33.3624C5.93923 32.9958 6.01255 32.6291 6.08588 32.3358C6.23253 31.7493 6.52582 31.3093 6.67247 31.016C6.74579 30.8694 6.81912 30.796 6.89244 30.7227C6.96576 30.5027 6.96576 30.4294 6.96576 30.4294Z" fill="#EE4600"/>
<path d="M6.15921 26.1033C6.15921 26.1033 6.08588 26.4699 6.01256 27.0565C5.93924 27.3498 5.93924 27.6431 5.86591 28.0097C5.79259 28.3763 5.79259 28.743 5.71927 29.1096C5.64594 29.9161 5.49929 30.7227 5.35265 31.3093C5.206 31.9692 4.98603 32.4092 4.61941 32.4825C4.47276 32.2625 4.47276 31.9692 4.39943 31.6759C4.32611 31.3826 4.32611 31.1627 4.32611 30.8694C4.32611 30.3561 4.32611 29.9161 4.39943 29.4762C4.54608 28.5963 4.76605 27.9364 5.05935 27.4231C5.206 27.2032 5.35265 26.9832 5.42597 26.7632C5.57262 26.6166 5.71927 26.4699 5.79259 26.3233C6.01256 26.1766 6.15921 26.1033 6.15921 26.1033Z" fill="#EE4600"/>
<path d="M6.15919 21.6306C6.15919 21.6306 6.15919 21.7039 6.08587 21.8505C6.08587 21.9972 6.01254 22.1438 5.8659 22.4371C5.79257 22.6571 5.64592 22.9504 5.5726 23.317C5.49928 23.4637 5.42595 23.6103 5.42595 23.8303C5.35263 23.9769 5.27931 24.1969 5.27931 24.3435C5.13266 24.6368 4.98601 24.9301 4.83936 25.2968C4.69271 25.6634 4.54607 25.9567 4.47274 26.1766C4.17945 26.6899 3.88615 27.0565 3.51953 27.0565C3.51953 26.4699 3.51953 26.03 3.59286 25.5167C3.66618 25.2968 3.66618 25.0768 3.7395 24.9301C3.81283 24.7102 3.88615 24.4902 3.95947 24.3435C4.17945 23.6103 4.61939 23.0237 4.91269 22.6571C5.27931 22.2905 5.5726 21.9972 5.79257 21.8505C5.93922 21.7772 6.01254 21.7039 6.08587 21.7039C6.15919 21.6306 6.15919 21.6306 6.15919 21.6306Z" fill="#EE4600"/>
<path d="M7.11244 17.1578C7.11244 17.1578 6.9658 17.4511 6.6725 17.8177C6.52585 18.0377 6.3792 18.2576 6.23256 18.5509C6.08591 18.8442 5.93926 19.0642 5.71929 19.3575C5.35267 19.9441 4.98605 20.5307 4.61943 20.8973C4.47278 21.1173 4.25281 21.2639 4.10616 21.4106C3.95952 21.4839 3.73954 21.5572 3.5929 21.4839C3.66622 20.9706 3.81287 20.5307 3.95952 20.1641C4.10616 19.7975 4.32613 19.4308 4.47278 19.1375C4.76608 18.7709 4.91273 18.5509 5.1327 18.331C5.35267 18.111 5.57264 17.9644 5.71929 17.8177C6.08591 17.5244 6.45253 17.3778 6.6725 17.3044C6.9658 17.2311 7.11244 17.1578 7.11244 17.1578Z" fill="#EE4600"/>
<path d="M8.87215 13.125C8.87215 13.125 8.06559 13.9316 7.1857 14.8114C6.96573 15.0314 6.74576 15.2514 6.52578 15.4714C6.30581 15.6913 6.08584 15.838 5.93919 15.9846C5.49925 16.2779 5.20595 16.4246 4.91266 16.2046C5.05931 15.7646 5.27928 15.398 5.49925 15.1047C5.71922 14.8114 5.93919 14.5181 6.15917 14.2982C6.59911 13.8582 7.03905 13.5649 7.479 13.4183C7.84562 13.2716 8.21224 13.1983 8.43221 13.1983C8.7255 13.0517 8.87215 13.125 8.87215 13.125Z" fill="#EE4600"/>
<path d="M11.4385 9.5321C11.4385 9.5321 11.3652 9.5321 11.2919 9.60543C11.2186 9.67875 11.0719 9.75207 10.9253 9.8254C10.5586 10.0454 10.1187 10.3387 9.67876 10.5586C9.45879 10.7053 9.23882 10.8519 8.94552 10.9253C8.72555 11.0719 8.50558 11.1452 8.28561 11.2186C8.06564 11.2919 7.91899 11.3652 7.69902 11.3652C7.55237 11.3652 7.40572 11.2919 7.3324 11.2186C8.28561 9.89872 9.45879 9.45878 10.192 9.31213C10.5586 9.23881 10.9253 9.31213 11.1452 9.31213C11.2919 9.45878 11.4385 9.5321 11.4385 9.5321Z" fill="#EE4600"/>
<path d="M14.5915 6.67247C14.5915 6.67247 14.3716 6.74579 14.0049 6.81912C13.8583 6.89244 13.6383 6.89244 13.4183 6.96576C13.1984 7.03909 12.9784 7.11241 12.7584 7.18574C12.5385 7.25906 12.3185 7.33238 12.0252 7.40571C11.8052 7.47903 11.5853 7.47903 11.3653 7.55236C10.9987 7.55236 10.632 7.55235 10.5587 7.25906C11.6586 6.30585 12.7584 6.23252 13.4183 6.30585C14.2249 6.37917 14.5915 6.67247 14.5915 6.67247Z" fill="#EE4600"/>
<path d="M18.331 4.76605C18.331 4.76605 18.111 4.76605 17.8177 4.76605C17.6711 4.76605 17.4511 4.76605 17.3044 4.76605C17.0845 4.76605 16.8645 4.76605 16.6445 4.76605C16.4245 4.76605 16.2046 4.76605 15.9846 4.76605C15.7646 4.76605 15.5447 4.76605 15.398 4.69273C15.0314 4.6194 14.7381 4.47276 14.7381 4.25279C15.0314 4.10614 15.3247 4.03281 15.5447 3.95949C15.838 3.88617 16.0579 3.88617 16.2779 3.88617C16.4979 3.88617 16.7178 3.88617 16.9378 3.95949C17.1578 4.03281 17.3044 4.03281 17.4511 4.10614C17.7444 4.25279 17.9644 4.39943 18.111 4.54608C18.2576 4.69273 18.331 4.76605 18.331 4.76605Z" fill="#EE4600"/>
<path d="M23.1703 1.53981C23.1703 1.53981 22.877 1.46648 22.3638 1.46648C22.1438 1.46648 21.8505 1.39316 21.5572 1.39316C21.4106 1.39316 21.2639 1.39316 21.0439 1.39316C20.8973 1.39316 20.6773 1.39316 20.5307 1.39316C20.384 1.39316 20.1641 1.39316 20.0174 1.46648C19.8708 1.46648 19.6508 1.53981 19.5041 1.53981C19.1375 1.61313 18.7709 1.68645 18.4776 1.8331C18.1843 1.90643 17.8177 2.05307 17.5977 2.27305C17.4511 2.34637 17.3777 2.41969 17.2311 2.49302C17.1578 2.56634 17.0111 2.63966 16.9378 2.78631C17.1578 2.78631 17.4511 2.78631 17.7444 2.78631C18.0377 2.78631 18.331 2.71299 18.6976 2.63966C18.8442 2.63966 18.9909 2.56634 19.2108 2.49302C19.3575 2.41969 19.5775 2.41969 19.7241 2.34637C19.7974 2.34637 19.9441 2.27305 20.1641 2.19972C20.3107 2.1264 20.5307 2.1264 20.6773 2.05307C20.824 1.97975 21.0439 1.97975 21.1906 1.90643C21.3372 1.90643 21.4839 1.8331 21.6305 1.8331C21.9238 1.75978 22.2171 1.68645 22.4371 1.68645C22.877 1.61313 23.1703 1.53981 23.1703 1.53981Z" fill="#EE4600"/>
<path d="M95 47.8072C104.899 48.5404 113.844 40.9881 116.117 29.8428C117.29 24.3435 116.557 18.331 114.138 13.4183C111.791 8.65222 107.758 4.98602 103.359 3.0796C102.552 2.71298 101.746 2.34636 100.939 2.12639C100.646 2.05306 100.426 1.75977 100.719 1.90642C105.045 3.22625 109.298 5.64594 112.378 9.53211C115.384 13.3449 116.924 18.331 117.217 23.4637C117.657 33.8023 112.011 43.4811 103.652 47.074C100.939 48.2471 97.933 48.6871 95.0733 48.4671V47.8072H95Z" fill="#EE4600"/>
<path d="M105.412 50.6668C105.412 50.6668 105.265 50.6668 105.045 50.7402C104.825 50.8135 104.459 50.8135 104.019 50.8868C103.579 50.9601 103.066 50.9601 102.552 50.9601C102.039 50.9601 101.453 50.9601 100.866 50.8135C100.279 50.7402 99.7661 50.5935 99.2528 50.4469C98.7396 50.3002 98.2996 50.0803 97.933 49.8603C97.1998 49.4203 96.7598 48.8337 96.8331 48.3205C98.2263 48.4671 99.3995 48.6138 100.426 48.7604C100.719 48.8337 100.939 48.9071 101.159 48.9071C101.379 48.9804 101.599 48.9804 101.892 49.0537C102.332 49.2004 102.772 49.2737 103.139 49.4203C103.506 49.567 103.872 49.7136 104.166 49.787C104.459 49.9336 104.679 50.0069 104.899 50.1536C105.192 50.5202 105.412 50.6668 105.412 50.6668Z" fill="#EE4600"/>
<path d="M110.178 47.5872C110.178 47.5872 110.031 47.6606 109.811 47.7339C109.591 47.8072 109.298 48.0272 108.858 48.1738C108.492 48.3205 107.978 48.4671 107.538 48.6138C107.318 48.6871 107.025 48.7604 106.805 48.8338C106.512 48.9071 106.292 48.9071 105.999 48.9804C105.705 49.0537 105.485 49.0537 105.192 49.0537C104.899 49.0537 104.679 49.0537 104.459 49.0537C103.946 49.0537 103.506 48.9804 103.139 48.8338C102.772 48.6871 102.406 48.5405 102.186 48.3938C101.966 48.1738 101.819 47.9539 101.819 47.6606C103.139 47.3673 104.239 47.2206 105.265 47.1473C105.779 47.074 106.219 47.074 106.659 47.074C106.879 47.074 107.098 47.074 107.318 47.074C107.538 47.074 107.685 47.074 107.905 47.074C108.638 47.1473 109.225 47.2206 109.665 47.2939C109.958 47.5139 110.178 47.5872 110.178 47.5872Z" fill="#EE4600"/>
<path d="M114.138 43.4078C114.138 43.4078 114.064 43.4811 113.844 43.6278C113.624 43.7744 113.404 43.9944 113.038 44.2143C112.671 44.4343 112.304 44.7276 111.865 44.9476C111.425 45.2409 110.985 45.4609 110.471 45.6808C110.251 45.8275 109.958 45.9008 109.738 45.9741C109.518 46.0474 109.298 46.1208 109.005 46.1941C108.565 46.2674 108.125 46.4141 107.758 46.3407C107.392 46.3407 107.025 46.2674 106.805 46.1941C106.585 46.0474 106.365 45.9008 106.292 45.6075C107.465 45.0209 108.418 44.581 109.372 44.2143C110.251 43.8477 111.058 43.7011 111.791 43.5544C112.158 43.4811 112.451 43.4078 112.744 43.4078C113.038 43.4078 113.258 43.3345 113.478 43.3345C113.918 43.4078 114.138 43.4078 114.138 43.4078Z" fill="#EE4600"/>
<path d="M117.144 38.3484C117.144 38.3484 117.071 38.4217 116.924 38.6417C116.777 38.8617 116.557 39.0816 116.337 39.3749C116.191 39.5216 116.044 39.6682 115.897 39.8149C115.751 39.9615 115.604 40.1082 115.384 40.3282C115.017 40.6948 114.651 40.9881 114.284 41.2814C113.918 41.5747 113.478 41.868 113.111 42.0879C112.671 42.3079 112.305 42.4545 112.011 42.6012C111.278 42.8212 110.765 42.7478 110.545 42.3079C111.498 41.428 112.305 40.7681 113.111 40.2548C113.478 39.9615 113.844 39.7416 114.211 39.5216C114.578 39.3016 114.871 39.155 115.164 39.0083C115.751 38.715 116.264 38.5684 116.631 38.4217C116.997 38.3484 117.144 38.3484 117.144 38.3484Z" fill="#EE4600"/>
<path d="M119.124 32.6291C119.124 32.6291 119.124 32.6291 119.124 32.7025C119.124 32.7758 119.05 32.8491 118.977 32.9224C118.904 33.1424 118.757 33.4357 118.537 33.729C118.39 34.0956 118.097 34.4622 117.877 34.8289C117.657 35.1955 117.364 35.6354 117.071 36.002C116.777 36.3687 116.411 36.7353 116.117 37.0286C115.824 37.3219 115.457 37.6152 115.164 37.7618C114.577 38.1284 114.064 38.2018 113.771 37.9085C114.431 36.8819 115.091 36.0754 115.677 35.3421C115.971 34.9755 116.264 34.6822 116.557 34.3889C116.851 34.0956 117.071 33.8757 117.364 33.6557C117.877 33.2157 118.317 32.9224 118.61 32.7758C118.757 32.7025 118.904 32.6291 118.977 32.5558C119.124 32.6291 119.124 32.6291 119.124 32.6291Z" fill="#EE4600"/>
<path d="M119.93 26.5433C119.93 26.5433 119.93 26.6899 119.857 26.9099C119.784 27.1299 119.71 27.4232 119.637 27.7898C119.49 28.1564 119.417 28.523 119.27 28.963C119.124 29.4029 118.904 29.8429 118.757 30.2828C118.317 31.1627 117.877 31.8959 117.364 32.4092C116.851 32.9225 116.411 33.1424 116.117 32.8491C116.191 32.5558 116.337 32.3359 116.411 32.0426C116.557 31.8226 116.631 31.5293 116.704 31.3093C116.924 30.8694 117.144 30.4295 117.364 29.9895C117.804 29.1829 118.244 28.5964 118.61 28.0831C118.83 27.8631 118.977 27.6431 119.124 27.4232C119.27 27.2032 119.417 27.0565 119.564 26.9832C119.784 26.6899 119.93 26.5433 119.93 26.5433Z" fill="#EE4600"/>
<path d="M119.49 20.5307C119.49 20.5307 119.49 20.6774 119.49 20.824C119.49 21.044 119.49 21.3373 119.417 21.6306C119.417 21.9972 119.344 22.3638 119.27 22.8038C119.27 23.0237 119.197 23.2437 119.197 23.4637C119.124 23.6836 119.124 23.9036 119.05 24.1236C118.977 24.3436 118.977 24.5635 118.904 24.7835C118.83 25.0035 118.757 25.2234 118.684 25.3701C118.537 25.7367 118.39 26.1033 118.244 26.3966C117.877 26.9832 117.511 27.2765 117.217 27.1299C117.511 24.8568 118.024 23.317 118.61 22.1438C118.83 21.5573 119.124 21.1906 119.27 20.8973C119.344 20.7507 119.417 20.6774 119.49 20.604C119.49 20.5307 119.49 20.5307 119.49 20.5307Z" fill="#EE4600"/>
<path d="M117.95 14.7381C117.95 14.7381 118.024 15.1781 118.097 15.7646C118.097 16.0579 118.17 16.4246 118.17 16.8645C118.17 17.2311 118.17 17.6711 118.17 18.111C118.17 18.9909 118.024 19.7975 117.804 20.3841C117.73 20.6774 117.584 20.8973 117.437 21.1173C117.291 21.2639 117.144 21.3373 116.997 21.3373C116.997 20.824 116.924 20.3107 116.924 19.8708C116.924 19.4308 116.924 18.9909 116.997 18.551C116.997 18.1843 117.071 17.7444 117.144 17.4511C117.217 17.0845 117.217 16.7912 117.291 16.4979C117.437 15.9113 117.584 15.4714 117.657 15.1781C117.877 14.8848 117.95 14.7381 117.95 14.7381Z" fill="#EE4600"/>
<path d="M115.311 9.60545C115.311 9.60545 115.311 9.67877 115.384 9.82542C115.457 9.97206 115.531 10.192 115.604 10.4853C115.677 10.7786 115.824 11.0719 115.897 11.4385C115.971 11.8052 116.044 12.1718 116.117 12.5384C116.191 12.905 116.191 13.2716 116.264 13.6383C116.264 14.0049 116.264 14.3715 116.264 14.6648C116.191 15.2514 116.044 15.6913 115.751 15.6913C115.237 13.8582 115.091 12.3184 115.091 11.2919C115.091 10.7786 115.164 10.3387 115.237 10.0454C115.237 9.75209 115.311 9.60545 115.311 9.60545Z" fill="#EE4600"/>
<path d="M111.791 5.27934C111.791 5.27934 111.865 5.35266 111.938 5.49931C112.011 5.64596 112.158 5.79261 112.231 6.01258C112.524 6.45252 112.818 7.11244 113.038 7.69903C113.184 7.99232 113.258 8.35894 113.331 8.65224C113.404 8.94554 113.478 9.31216 113.478 9.53213C113.551 10.0454 113.478 10.4853 113.184 10.632C112.378 9.09218 111.938 7.84568 111.791 6.81914C111.718 6.30587 111.645 5.93925 111.645 5.64596C111.791 5.42599 111.791 5.27934 111.791 5.27934Z" fill="#EE4600"/>
<path d="M107.538 2.05308C107.538 2.05308 107.758 2.27305 108.052 2.63967C108.198 2.78632 108.418 3.00629 108.565 3.22626C108.712 3.44623 108.932 3.6662 109.078 3.9595C109.298 4.17947 109.445 4.39944 109.592 4.69274C109.738 4.91271 109.811 5.20601 109.885 5.42598C110.031 5.86592 110.031 6.23254 109.885 6.45251C108.858 5.27933 108.272 4.2528 107.905 3.44623C107.612 2.63967 107.538 2.05308 107.538 2.05308Z" fill="#EE4600"/>
<path d="M102.772 7.62939e-06C102.772 7.62939e-06 102.992 0.146655 103.359 0.366627C103.652 0.586599 104.092 0.879895 104.532 1.24651C104.679 1.46649 104.899 1.61313 105.045 1.83311C105.192 2.05308 105.339 2.19973 105.485 2.4197C105.705 2.78632 105.779 3.15294 105.632 3.37291C105.339 3.22626 105.119 3.00629 104.825 2.78632C104.605 2.56634 104.386 2.4197 104.166 2.19973C103.946 1.97975 103.799 1.83311 103.652 1.68646C103.579 1.46649 103.506 1.31984 103.359 1.17319C103.139 0.806571 102.992 0.586599 102.919 0.366627C102.772 0.146655 102.772 7.62939e-06 102.772 7.62939e-06Z" fill="#EE4600"/>
<path d="M102.626 42.3079C102.626 42.3079 102.552 42.3812 102.406 42.5279C102.259 42.6745 102.039 42.8212 101.819 43.0411C101.526 43.2611 101.233 43.4811 100.939 43.701C100.573 43.921 100.279 44.2143 99.8394 44.5076C99.4728 44.8009 99.1062 45.0209 98.7395 45.3142C98.3729 45.6075 98.0063 45.8274 97.713 46.1207C97.1264 46.634 96.6865 47.2206 96.8331 47.7339C98.1529 47.5872 99.2528 47.1473 100.059 46.5607C100.279 46.414 100.426 46.2674 100.646 46.1207C100.793 45.9741 101.013 45.8274 101.159 45.6075C101.453 45.3142 101.672 44.9476 101.892 44.6543C102.112 44.361 102.259 43.9943 102.332 43.7744C102.406 43.4811 102.552 43.2611 102.552 43.0411C102.626 42.6012 102.626 42.3079 102.626 42.3079Z" fill="#EE4600"/>
<path d="M105.999 40.4748C105.999 40.4748 105.779 40.8414 105.339 41.3547C105.119 41.5746 104.899 41.9413 104.605 42.2346C104.459 42.3812 104.312 42.5279 104.165 42.7478C104.019 42.8945 103.872 43.1144 103.726 43.2611C103.579 43.4077 103.432 43.6277 103.286 43.7744C103.139 43.921 102.992 44.141 102.846 44.2876C102.552 44.5809 102.259 44.9475 102.039 45.3142C101.819 45.6075 101.672 45.9741 101.526 46.2674C101.453 46.5607 101.379 46.854 101.526 47.0739C102.772 46.634 103.652 45.9008 104.312 45.1675C104.605 44.8009 104.899 44.4343 105.119 43.9943C105.192 43.7744 105.339 43.6277 105.412 43.4077C105.485 43.1878 105.559 43.0411 105.632 42.8945C105.852 42.2346 105.925 41.5746 105.925 41.208C105.999 40.7681 105.999 40.4748 105.999 40.4748Z" fill="#EE4600"/>
<path d="M108.932 37.8351C108.932 37.8351 108.858 37.9085 108.785 38.1284C108.712 38.2751 108.565 38.5684 108.418 38.8617C108.272 39.155 108.125 39.5216 107.905 39.8149C107.758 40.1815 107.538 40.5481 107.319 40.9881C107.245 41.208 107.099 41.3547 107.025 41.5747C106.952 41.7946 106.805 41.9413 106.732 42.1612C106.512 42.5279 106.365 42.9678 106.219 43.2611C106.072 43.6277 105.999 43.921 105.925 44.2876C105.925 44.5809 105.925 44.8742 106.072 45.0209C107.099 44.2876 107.832 43.3344 108.272 42.5279C108.712 41.648 108.932 40.8414 109.005 40.1082C109.078 39.7416 109.078 39.4483 109.078 39.155C109.078 38.8617 109.078 38.6417 109.005 38.4217C109.005 38.0551 108.932 37.8351 108.932 37.8351Z" fill="#EE4600"/>
<path d="M111.278 34.3889C111.278 34.3889 111.278 34.4622 111.205 34.6822C111.205 34.8289 111.131 35.1222 111.058 35.4154C110.985 35.5621 110.985 35.7087 110.911 35.9287C110.838 36.0754 110.838 36.2953 110.765 36.442C110.691 36.8086 110.545 37.2485 110.398 37.6885C110.251 38.1284 110.178 38.5684 110.031 38.935C109.885 39.3749 109.811 39.7416 109.738 40.1082C109.592 40.8414 109.592 41.428 109.958 41.7213C110.765 40.7681 111.205 39.7416 111.498 38.8617C111.645 38.4217 111.718 37.9818 111.718 37.5418C111.718 37.1019 111.718 36.7353 111.718 36.442C111.645 35.7821 111.498 35.2688 111.425 34.9022C111.351 34.6089 111.278 34.3889 111.278 34.3889Z" fill="#EE4600"/>
<path d="M112.964 30.4294C112.964 30.5761 112.964 30.6494 112.964 30.7227C112.964 30.8694 112.964 31.1627 112.964 31.456C112.964 31.7493 112.891 32.1159 112.891 32.4825C112.891 32.8491 112.818 33.2891 112.818 33.729C112.744 34.1689 112.744 34.5356 112.744 34.9755C112.744 35.4154 112.744 35.7821 112.744 36.1487C112.744 36.8819 112.891 37.3952 113.258 37.6152C113.771 36.5153 113.991 35.4888 114.064 34.6089C114.064 34.1689 114.064 33.729 114.064 33.3624C113.991 32.9958 113.918 32.6291 113.844 32.3358C113.698 31.7493 113.478 31.3093 113.258 31.016C113.184 30.8694 113.111 30.796 113.038 30.7227C112.964 30.5027 112.964 30.4294 112.964 30.4294Z" fill="#EE4600"/>
<path d="M113.771 26.1033C113.771 26.1033 113.844 26.4699 113.918 27.0565C113.991 27.3498 113.991 27.6431 114.064 28.0097C114.138 28.3763 114.138 28.743 114.211 29.1096C114.284 29.9161 114.431 30.7227 114.577 31.3093C114.724 31.9692 114.944 32.4092 115.311 32.4825C115.384 32.1892 115.457 31.8959 115.457 31.6759C115.531 31.3826 115.531 31.1627 115.531 30.8694C115.531 30.3561 115.531 29.9161 115.457 29.4762C115.311 28.5963 115.091 27.9364 114.797 27.4231C114.651 27.2032 114.504 26.9832 114.431 26.7632C114.284 26.6166 114.138 26.4699 114.064 26.3233C113.918 26.1766 113.771 26.1033 113.771 26.1033Z" fill="#EE4600"/>
<path d="M113.771 21.6306C113.771 21.6306 113.771 21.7039 113.844 21.8505C113.918 21.9972 113.991 22.2172 114.064 22.4371C114.138 22.6571 114.284 22.9504 114.358 23.317C114.431 23.4637 114.504 23.6103 114.504 23.8303C114.577 23.9769 114.651 24.1969 114.651 24.3435C114.797 24.7102 114.871 25.0035 115.017 25.3701C115.164 25.7367 115.311 26.03 115.384 26.25C115.677 26.7632 115.971 27.1299 116.337 27.1299C116.337 26.5433 116.337 26.1033 116.264 25.5901C116.191 25.3701 116.191 25.1501 116.117 24.9301C116.044 24.7102 115.971 24.4902 115.897 24.3435C115.677 23.6103 115.237 23.0237 114.944 22.6571C114.577 22.2905 114.284 21.9972 114.064 21.8505C113.918 21.7772 113.844 21.7039 113.771 21.7039C113.771 21.6306 113.771 21.6306 113.771 21.6306Z" fill="#EE4600"/>
<path d="M112.818 17.1578C112.818 17.1578 112.964 17.4511 113.258 17.8177C113.404 18.0377 113.551 18.2576 113.698 18.5509C113.844 18.8442 113.991 19.0642 114.211 19.3575C114.578 19.9441 114.944 20.5307 115.311 20.8973C115.457 21.1173 115.677 21.2639 115.824 21.4106C115.971 21.4839 116.191 21.5572 116.337 21.4839C116.264 20.9706 116.117 20.5307 115.971 20.1641C115.824 19.7975 115.604 19.4308 115.457 19.1375C115.237 18.8442 115.091 18.5509 114.871 18.331C114.651 18.111 114.431 17.9644 114.284 17.8177C113.918 17.5244 113.551 17.3778 113.331 17.3044C112.964 17.2311 112.818 17.1578 112.818 17.1578Z" fill="#EE4600"/>
<path d="M111.058 13.125C111.058 13.125 111.865 13.9316 112.744 14.8114C112.964 15.0314 113.184 15.2514 113.404 15.4714C113.624 15.6913 113.844 15.838 113.991 15.9846C114.431 16.2779 114.724 16.4246 115.017 16.2046C114.871 15.7646 114.651 15.398 114.431 15.1047C114.211 14.8114 113.991 14.5181 113.771 14.2982C113.331 13.8582 112.891 13.5649 112.451 13.4183C112.085 13.2716 111.718 13.1983 111.498 13.1983C111.205 13.0517 111.058 13.125 111.058 13.125Z" fill="#EE4600"/>
<path d="M108.492 9.5321C108.492 9.5321 108.565 9.5321 108.638 9.60543C108.712 9.67875 108.858 9.75207 109.005 9.8254C109.372 10.0454 109.811 10.3387 110.251 10.5586C110.471 10.7053 110.691 10.8519 110.985 10.9253C111.205 11.0719 111.425 11.1452 111.645 11.2186C111.865 11.2919 112.011 11.3652 112.231 11.3652C112.378 11.3652 112.524 11.2919 112.598 11.2186C111.645 9.89872 110.471 9.45878 109.738 9.31213C109.372 9.23881 109.005 9.31213 108.785 9.31213C108.638 9.45878 108.492 9.5321 108.492 9.5321Z" fill="#EE4600"/>
<path d="M105.339 6.67247C105.339 6.67247 105.559 6.74579 105.925 6.81912C106.072 6.89244 106.292 6.89244 106.512 6.96576C106.732 7.03909 106.952 7.11241 107.172 7.18574C107.392 7.25906 107.612 7.33238 107.905 7.40571C108.125 7.47903 108.345 7.47903 108.565 7.55236C108.932 7.55236 109.298 7.55235 109.372 7.25906C108.272 6.30585 107.172 6.23252 106.512 6.30585C105.705 6.37917 105.339 6.67247 105.339 6.67247Z" fill="#EE4600"/>
<path d="M101.599 4.76605C101.599 4.76605 101.819 4.76605 102.112 4.76605C102.259 4.76605 102.479 4.76605 102.626 4.76605C102.846 4.76605 103.066 4.76605 103.286 4.76605C103.506 4.76605 103.726 4.76605 103.946 4.76605C104.166 4.76605 104.385 4.76605 104.532 4.69273C104.899 4.6194 105.192 4.47276 105.192 4.25279C104.899 4.10614 104.605 4.03281 104.385 3.95949C104.092 3.88617 103.872 3.88617 103.652 3.88617C103.432 3.88617 103.212 3.88617 102.992 3.95949C102.772 4.03281 102.626 4.03281 102.479 4.10614C102.186 4.25279 101.966 4.39943 101.819 4.54608C101.673 4.69273 101.599 4.76605 101.599 4.76605Z" fill="#EE4600"/>
<path d="M96.7598 1.53981C96.7598 1.53981 97.0531 1.46648 97.5663 1.46648C97.7863 1.46648 98.0796 1.39316 98.3729 1.39316C98.5195 1.39316 98.6662 1.39316 98.8862 1.39316C99.0328 1.39316 99.2528 1.39316 99.3994 1.39316C99.5461 1.46648 99.766 1.46648 99.9127 1.46648C100.059 1.46648 100.279 1.53981 100.426 1.53981C100.793 1.61313 101.159 1.68645 101.452 1.8331C101.746 1.90643 102.112 2.05307 102.332 2.27305C102.479 2.34637 102.552 2.41969 102.699 2.49302C102.772 2.56634 102.919 2.63966 102.992 2.78631C102.772 2.78631 102.479 2.78631 102.186 2.78631C101.892 2.78631 101.599 2.71299 101.233 2.63966C101.086 2.63966 100.939 2.56634 100.719 2.49302C100.573 2.41969 100.353 2.41969 100.206 2.34637C100.059 2.27305 99.8394 2.27305 99.6927 2.19972C99.5461 2.1264 99.3261 2.1264 99.1795 2.05307C99.0328 1.97975 98.8862 1.97975 98.6662 1.90643C98.5195 1.90643 98.3729 1.8331 98.2262 1.8331C97.9329 1.75978 97.6397 1.68645 97.4197 1.68645C97.0531 1.61313 96.7598 1.53981 96.7598 1.53981Z" fill="#EE4600"/>
<path d="M24.6279 14.575C24.7113 12.9083 25.2946 11.625 26.3779 10.725C27.4779 9.80833 28.9196 9.35 30.7029 9.35C31.9196 9.35 32.9613 9.56667 33.8279 10C34.6946 10.4167 35.3446 10.9917 35.7779 11.725C36.2279 12.4417 36.4529 13.2583 36.4529 14.175C36.4529 15.225 36.1779 16.1167 35.6279 16.85C35.0946 17.5667 34.4529 18.05 33.7029 18.3V18.4C34.6696 18.7 35.4196 19.2333 35.9529 20C36.5029 20.7667 36.7779 21.75 36.7779 22.95C36.7779 23.95 36.5446 24.8417 36.0779 25.625C35.6279 26.4083 34.9529 27.025 34.0529 27.475C33.1696 27.9083 32.1029 28.125 30.8529 28.125C28.9696 28.125 27.4363 27.65 26.2529 26.7C25.0696 25.75 24.4446 24.35 24.3779 22.5H27.7779C27.8113 23.3167 28.0863 23.975 28.6029 24.475C29.1363 24.9583 29.8613 25.2 30.7779 25.2C31.6279 25.2 32.2779 24.9667 32.7279 24.5C33.1946 24.0167 33.4279 23.4 33.4279 22.65C33.4279 21.65 33.1113 20.9333 32.4779 20.5C31.8446 20.0667 30.8613 19.85 29.5279 19.85H28.8029V16.975H29.5279C31.8946 16.975 33.0779 16.1833 33.0779 14.6C33.0779 13.8833 32.8613 13.325 32.4279 12.925C32.0113 12.525 31.4029 12.325 30.6029 12.325C29.8196 12.325 29.2113 12.5417 28.7779 12.975C28.3613 13.3917 28.1196 13.925 28.0529 14.575H24.6279ZM39.3938 24.45V21.7L47.5688 10H51.6438V21.4H53.8438V24.45H51.6438V28H48.1438V24.45H39.3938ZM48.3688 13.75L43.2438 21.4H48.3688V13.75Z" fill="#EE4600"/>
<path d="M62.0502 11.608C61.9062 11.344 61.7082 11.143 61.4562 11.005C61.2042 10.867 60.9102 10.798 60.5742 10.798C60.2022 10.798 59.8722 10.882 59.5842 11.05C59.2962 11.218 59.0712 11.458 58.9092 11.77C58.7472 12.082 58.6662 12.442 58.6662 12.85C58.6662 13.27 58.7472 13.636 58.9092 13.948C59.0772 14.26 59.3082 14.5 59.6022 14.668C59.8962 14.836 60.2382 14.92 60.6282 14.92C61.1082 14.92 61.5012 14.794 61.8072 14.542C62.1132 14.284 62.3142 13.927 62.4102 13.471H60.2502V12.508H63.6522V13.606C63.5682 14.044 63.3882 14.449 63.1122 14.821C62.8362 15.193 62.4792 15.493 62.0412 15.721C61.6092 15.943 61.1232 16.054 60.5832 16.054C59.9772 16.054 59.4282 15.919 58.9362 15.649C58.4502 15.373 58.0662 14.992 57.7842 14.506C57.5082 14.02 57.3702 13.468 57.3702 12.85C57.3702 12.232 57.5082 11.68 57.7842 11.194C58.0662 10.702 58.4502 10.321 58.9362 10.051C59.4282 9.775 59.9742 9.637 60.5742 9.637C61.2822 9.637 61.8972 9.811 62.4192 10.159C62.9412 10.501 63.3012 10.984 63.4992 11.608H62.0502ZM65.8444 9.34V16H64.5844V9.34H65.8444ZM69.3033 16.081C68.8233 16.081 68.3913 15.976 68.0073 15.766C67.6233 15.55 67.3203 15.247 67.0983 14.857C66.8823 14.467 66.7743 14.017 66.7743 13.507C66.7743 12.997 66.8853 12.547 67.1073 12.157C67.3353 11.767 67.6443 11.467 68.0343 11.257C68.4243 11.041 68.8593 10.933 69.3393 10.933C69.8193 10.933 70.2543 11.041 70.6443 11.257C71.0343 11.467 71.3403 11.767 71.5623 12.157C71.7903 12.547 71.9043 12.997 71.9043 13.507C71.9043 14.017 71.7873 14.467 71.5533 14.857C71.3253 15.247 71.0133 15.55 70.6173 15.766C70.2273 15.976 69.7893 16.081 69.3033 16.081ZM69.3033 14.983C69.5313 14.983 69.7443 14.929 69.9423 14.821C70.1463 14.707 70.3083 14.539 70.4283 14.317C70.5483 14.095 70.6083 13.825 70.6083 13.507C70.6083 13.033 70.4823 12.67 70.2303 12.418C69.9843 12.16 69.6813 12.031 69.3213 12.031C68.9613 12.031 68.6583 12.16 68.4123 12.418C68.1723 12.67 68.0523 13.033 68.0523 13.507C68.0523 13.981 68.1693 14.347 68.4033 14.605C68.6433 14.857 68.9433 14.983 69.3033 14.983ZM74.0885 11.788C74.2505 11.524 74.4605 11.317 74.7185 11.167C74.9825 11.017 75.2825 10.942 75.6185 10.942V12.265H75.2855C74.8895 12.265 74.5895 12.358 74.3855 12.544C74.1875 12.73 74.0885 13.054 74.0885 13.516V16H72.8285V11.014H74.0885V11.788ZM77.1062 10.42C76.8842 10.42 76.6982 10.351 76.5482 10.213C76.4042 10.069 76.3322 9.892 76.3322 9.682C76.3322 9.472 76.4042 9.298 76.5482 9.16C76.6982 9.016 76.8842 8.944 77.1062 8.944C77.3282 8.944 77.5112 9.016 77.6552 9.16C77.8052 9.298 77.8802 9.472 77.8802 9.682C77.8802 9.892 77.8052 10.069 77.6552 10.213C77.5112 10.351 77.3282 10.42 77.1062 10.42ZM77.7272 11.014V16H76.4672V11.014H77.7272ZM81.1861 16.081C80.7061 16.081 80.2741 15.976 79.8901 15.766C79.5061 15.55 79.2031 15.247 78.9811 14.857C78.7651 14.467 78.6571 14.017 78.6571 13.507C78.6571 12.997 78.7681 12.547 78.9901 12.157C79.2181 11.767 79.5271 11.467 79.9171 11.257C80.3071 11.041 80.7421 10.933 81.2221 10.933C81.7021 10.933 82.1371 11.041 82.5271 11.257C82.9171 11.467 83.2231 11.767 83.4451 12.157C83.6731 12.547 83.7871 12.997 83.7871 13.507C83.7871 14.017 83.6701 14.467 83.4361 14.857C83.2081 15.247 82.8961 15.55 82.5001 15.766C82.1101 15.976 81.6721 16.081 81.1861 16.081ZM81.1861 14.983C81.4141 14.983 81.6271 14.929 81.8251 14.821C82.0291 14.707 82.1911 14.539 82.3111 14.317C82.4311 14.095 82.4911 13.825 82.4911 13.507C82.4911 13.033 82.3651 12.67 82.1131 12.418C81.8671 12.16 81.5641 12.031 81.2041 12.031C80.8441 12.031 80.5411 12.16 80.2951 12.418C80.0551 12.67 79.9351 13.033 79.9351 13.507C79.9351 13.981 80.0521 14.347 80.2861 14.605C80.5261 14.857 80.8261 14.983 81.1861 14.983ZM89.4183 11.014V16H88.1493V15.37C87.9873 15.586 87.7743 15.757 87.5103 15.883C87.2523 16.003 86.9703 16.063 86.6643 16.063C86.2743 16.063 85.9293 15.982 85.6293 15.82C85.3293 15.652 85.0923 15.409 84.9183 15.091C84.7503 14.767 84.6663 14.383 84.6663 13.939V11.014H85.9263V13.759C85.9263 14.155 86.0253 14.461 86.2233 14.677C86.4213 14.887 86.6913 14.992 87.0333 14.992C87.3813 14.992 87.6543 14.887 87.8523 14.677C88.0503 14.461 88.1493 14.155 88.1493 13.759V11.014H89.4183ZM92.5695 16.081C92.1615 16.081 91.7955 16.009 91.4715 15.865C91.1475 15.715 90.8895 15.514 90.6975 15.262C90.5115 15.01 90.4095 14.731 90.3915 14.425H91.6605C91.6845 14.617 91.7775 14.776 91.9395 14.902C92.1075 15.028 92.3145 15.091 92.5605 15.091C92.8005 15.091 92.9865 15.043 93.1185 14.947C93.2565 14.851 93.3255 14.728 93.3255 14.578C93.3255 14.416 93.2415 14.296 93.0735 14.218C92.9115 14.134 92.6505 14.044 92.2905 13.948C91.9185 13.858 91.6125 13.765 91.3725 13.669C91.1385 13.573 90.9345 13.426 90.7605 13.228C90.5925 13.03 90.5085 12.763 90.5085 12.427C90.5085 12.151 90.5865 11.899 90.7425 11.671C90.9045 11.443 91.1325 11.263 91.4265 11.131C91.7265 10.999 92.0775 10.933 92.4795 10.933C93.0735 10.933 93.5475 11.083 93.9015 11.383C94.2555 11.677 94.4505 12.076 94.4865 12.58H93.2805C93.2625 12.382 93.1785 12.226 93.0285 12.112C92.8845 11.992 92.6895 11.932 92.4435 11.932C92.2155 11.932 92.0385 11.974 91.9125 12.058C91.7925 12.142 91.7325 12.259 91.7325 12.409C91.7325 12.577 91.8165 12.706 91.9845 12.796C92.1525 12.88 92.4135 12.967 92.7675 13.057C93.1275 13.147 93.4245 13.24 93.6585 13.336C93.8925 13.432 94.0935 13.582 94.2615 13.786C94.4355 13.984 94.5255 14.248 94.5315 14.578C94.5315 14.866 94.4505 15.124 94.2885 15.352C94.1325 15.58 93.9045 15.76 93.6045 15.892C93.3105 16.018 92.9655 16.081 92.5695 16.081Z" fill="black"/>
<path d="M63.6634 20.718L61.5394 24.813V27H60.2794V24.813L58.1464 20.718H59.5684L60.9184 23.589L62.2594 20.718H63.6634ZM69.025 24.399C69.025 24.579 69.013 24.741 68.989 24.885H65.344C65.374 25.245 65.5 25.527 65.722 25.731C65.944 25.935 66.217 26.037 66.541 26.037C67.009 26.037 67.342 25.836 67.54 25.434H68.899C68.755 25.914 68.479 26.31 68.071 26.622C67.663 26.928 67.162 27.081 66.568 27.081C66.088 27.081 65.656 26.976 65.272 26.766C64.894 26.55 64.597 26.247 64.381 25.857C64.171 25.467 64.066 25.017 64.066 24.507C64.066 23.991 64.171 23.538 64.381 23.148C64.591 22.758 64.885 22.458 65.263 22.248C65.641 22.038 66.076 21.933 66.568 21.933C67.042 21.933 67.465 22.035 67.837 22.239C68.215 22.443 68.506 22.734 68.71 23.112C68.92 23.484 69.025 23.913 69.025 24.399ZM67.72 24.039C67.714 23.715 67.597 23.457 67.369 23.265C67.141 23.067 66.862 22.968 66.532 22.968C66.22 22.968 65.956 23.064 65.74 23.256C65.53 23.442 65.401 23.703 65.353 24.039H67.72ZM69.6207 24.489C69.6207 23.985 69.7197 23.538 69.9177 23.148C70.1217 22.758 70.3947 22.458 70.7367 22.248C71.0847 22.038 71.4717 21.933 71.8977 21.933C72.2697 21.933 72.5937 22.008 72.8697 22.158C73.1517 22.308 73.3767 22.497 73.5447 22.725V22.014H74.8137V27H73.5447V26.271C73.3827 26.505 73.1577 26.7 72.8697 26.856C72.5877 27.006 72.2607 27.081 71.8887 27.081C71.4687 27.081 71.0847 26.973 70.7367 26.757C70.3947 26.541 70.1217 26.238 69.9177 25.848C69.7197 25.452 69.6207 24.999 69.6207 24.489ZM73.5447 24.507C73.5447 24.201 73.4847 23.94 73.3647 23.724C73.2447 23.502 73.0827 23.334 72.8787 23.22C72.6747 23.1 72.4557 23.04 72.2217 23.04C71.9877 23.04 71.7717 23.097 71.5737 23.211C71.3757 23.325 71.2137 23.493 71.0877 23.715C70.9677 23.931 70.9077 24.189 70.9077 24.489C70.9077 24.789 70.9677 25.053 71.0877 25.281C71.2137 25.503 71.3757 25.674 71.5737 25.794C71.7777 25.914 71.9937 25.974 72.2217 25.974C72.4557 25.974 72.6747 25.917 72.8787 25.803C73.0827 25.683 73.2447 25.515 73.3647 25.299C73.4847 25.077 73.5447 24.813 73.5447 24.507ZM77.3043 22.788C77.4663 22.524 77.6763 22.317 77.9343 22.167C78.1983 22.017 78.4983 21.942 78.8343 21.942V23.265H78.5013C78.1053 23.265 77.8053 23.358 77.6013 23.544C77.4033 23.73 77.3043 24.054 77.3043 24.516V27H76.0443V22.014H77.3043V22.788ZM81.591 27.081C81.183 27.081 80.817 27.009 80.493 26.865C80.169 26.715 79.911 26.514 79.719 26.262C79.533 26.01 79.431 25.731 79.413 25.425H80.682C80.706 25.617 80.799 25.776 80.961 25.902C81.129 26.028 81.336 26.091 81.582 26.091C81.822 26.091 82.008 26.043 82.14 25.947C82.278 25.851 82.347 25.728 82.347 25.578C82.347 25.416 82.263 25.296 82.095 25.218C81.933 25.134 81.672 25.044 81.312 24.948C80.94 24.858 80.634 24.765 80.394 24.669C80.16 24.573 79.956 24.426 79.782 24.228C79.614 24.03 79.53 23.763 79.53 23.427C79.53 23.151 79.608 22.899 79.764 22.671C79.926 22.443 80.154 22.263 80.448 22.131C80.748 21.999 81.099 21.933 81.501 21.933C82.095 21.933 82.569 22.083 82.923 22.383C83.277 22.677 83.472 23.076 83.508 23.58H82.302C82.284 23.382 82.2 23.226 82.05 23.112C81.906 22.992 81.711 22.932 81.465 22.932C81.237 22.932 81.06 22.974 80.934 23.058C80.814 23.142 80.754 23.259 80.754 23.409C80.754 23.577 80.838 23.706 81.006 23.796C81.174 23.88 81.435 23.967 81.789 24.057C82.149 24.147 82.446 24.24 82.68 24.336C82.914 24.432 83.115 24.582 83.283 24.786C83.457 24.984 83.547 25.248 83.553 25.578C83.553 25.866 83.472 26.124 83.31 26.352C83.154 26.58 82.926 26.76 82.626 26.892C82.332 27.018 81.987 27.081 81.591 27.081ZM88.9458 27.081C88.4658 27.081 88.0338 26.976 87.6498 26.766C87.2658 26.55 86.9628 26.247 86.7408 25.857C86.5248 25.467 86.4168 25.017 86.4168 24.507C86.4168 23.997 86.5278 23.547 86.7498 23.157C86.9778 22.767 87.2868 22.467 87.6768 22.257C88.0668 22.041 88.5018 21.933 88.9818 21.933C89.4618 21.933 89.8968 22.041 90.2868 22.257C90.6768 22.467 90.9828 22.767 91.2048 23.157C91.4328 23.547 91.5468 23.997 91.5468 24.507C91.5468 25.017 91.4298 25.467 91.1958 25.857C90.9678 26.247 90.6558 26.55 90.2598 26.766C89.8698 26.976 89.4318 27.081 88.9458 27.081ZM88.9458 25.983C89.1738 25.983 89.3868 25.929 89.5848 25.821C89.7888 25.707 89.9508 25.539 90.0708 25.317C90.1908 25.095 90.2508 24.825 90.2508 24.507C90.2508 24.033 90.1248 23.67 89.8728 23.418C89.6268 23.16 89.3238 23.031 88.9638 23.031C88.6038 23.031 88.3008 23.16 88.0548 23.418C87.8148 23.67 87.6948 24.033 87.6948 24.507C87.6948 24.981 87.8118 25.347 88.0458 25.605C88.2858 25.857 88.5858 25.983 88.9458 25.983ZM94.7571 23.049H93.8841V27H92.6061V23.049H92.0391V22.014H92.6061V21.762C92.6061 21.15 92.7801 20.7 93.1281 20.412C93.4761 20.124 94.0011 19.989 94.7031 20.007V21.069C94.3971 21.063 94.1841 21.114 94.0641 21.222C93.9441 21.33 93.8841 21.525 93.8841 21.807V22.014H94.7571V23.049Z" fill="black"/>
<path d="M20.976 37.936H18.752L18.384 39H17.208L19.216 33.408H20.52L22.528 39H21.344L20.976 37.936ZM20.672 37.04L19.864 34.704L19.056 37.04H20.672ZM22.9906 36.784C22.9906 36.3253 23.0839 35.9253 23.2706 35.584C23.4572 35.2373 23.7159 34.9707 24.0466 34.784C24.3772 34.592 24.7559 34.496 25.1826 34.496C25.7319 34.496 26.1852 34.6347 26.5426 34.912C26.9052 35.184 27.1479 35.568 27.2706 36.064H26.0626C25.9986 35.872 25.8892 35.7227 25.7346 35.616C25.5852 35.504 25.3986 35.448 25.1746 35.448C24.8546 35.448 24.6012 35.5653 24.4146 35.8C24.2279 36.0293 24.1346 36.3573 24.1346 36.784C24.1346 37.2053 24.2279 37.5333 24.4146 37.768C24.6012 37.9973 24.8546 38.112 25.1746 38.112C25.6279 38.112 25.9239 37.9093 26.0626 37.504H27.2706C27.1479 37.984 26.9052 38.3653 26.5426 38.648C26.1799 38.9307 25.7266 39.072 25.1826 39.072C24.7559 39.072 24.3772 38.9787 24.0466 38.792C23.7159 38.6 23.4572 38.3333 23.2706 37.992C23.0839 37.6453 22.9906 37.2427 22.9906 36.784ZM27.8031 36.768C27.8031 36.32 27.8911 35.9227 28.0671 35.576C28.2484 35.2293 28.4911 34.9627 28.7951 34.776C29.1044 34.5893 29.4484 34.496 29.8271 34.496C30.1577 34.496 30.4457 34.5627 30.6911 34.696C30.9417 34.8293 31.1417 34.9973 31.2911 35.2V34.568H32.4191V39H31.2911V38.352C31.1471 38.56 30.9471 38.7333 30.6911 38.872C30.4404 39.0053 30.1497 39.072 29.8191 39.072C29.4457 39.072 29.1044 38.976 28.7951 38.784C28.4911 38.592 28.2484 38.3227 28.0671 37.976C27.8911 37.624 27.8031 37.2213 27.8031 36.768ZM31.2911 36.784C31.2911 36.512 31.2377 36.28 31.1311 36.088C31.0244 35.8907 30.8804 35.7413 30.6991 35.64C30.5177 35.5333 30.3231 35.48 30.1151 35.48C29.9071 35.48 29.7151 35.5307 29.5391 35.632C29.3631 35.7333 29.2191 35.8827 29.1071 36.08C29.0004 36.272 28.9471 36.5013 28.9471 36.768C28.9471 37.0347 29.0004 37.2693 29.1071 37.472C29.2191 37.6693 29.3631 37.8213 29.5391 37.928C29.7204 38.0347 29.9124 38.088 30.1151 38.088C30.3231 38.088 30.5177 38.0373 30.6991 37.936C30.8804 37.8293 31.0244 37.68 31.1311 37.488C31.2377 37.2907 31.2911 37.056 31.2911 36.784ZM33.2249 36.768C33.2249 36.32 33.3129 35.9227 33.4889 35.576C33.6703 35.2293 33.9156 34.9627 34.2249 34.776C34.5343 34.5893 34.8783 34.496 35.2569 34.496C35.5449 34.496 35.8196 34.56 36.0809 34.688C36.3423 34.8107 36.5503 34.976 36.7049 35.184V33.08H37.8409V39H36.7049V38.344C36.5663 38.5627 36.3716 38.7387 36.1209 38.872C35.8703 39.0053 35.5796 39.072 35.2489 39.072C34.8756 39.072 34.5343 38.976 34.2249 38.784C33.9156 38.592 33.6703 38.3227 33.4889 37.976C33.3129 37.624 33.2249 37.2213 33.2249 36.768ZM36.7129 36.784C36.7129 36.512 36.6596 36.28 36.5529 36.088C36.4463 35.8907 36.3023 35.7413 36.1209 35.64C35.9396 35.5333 35.7449 35.48 35.5369 35.48C35.3289 35.48 35.1369 35.5307 34.9609 35.632C34.7849 35.7333 34.6409 35.8827 34.5289 36.08C34.4223 36.272 34.3689 36.5013 34.3689 36.768C34.3689 37.0347 34.4223 37.2693 34.5289 37.472C34.6409 37.6693 34.7849 37.8213 34.9609 37.928C35.1423 38.0347 35.3343 38.088 35.5369 38.088C35.7449 38.088 35.9396 38.0373 36.1209 37.936C36.3023 37.8293 36.4463 37.68 36.5529 37.488C36.6596 37.2907 36.7129 37.056 36.7129 36.784ZM43.0548 36.688C43.0548 36.848 43.0441 36.992 43.0228 37.12H39.7828C39.8095 37.44 39.9215 37.6907 40.1188 37.872C40.3161 38.0533 40.5588 38.144 40.8468 38.144C41.2628 38.144 41.5588 37.9653 41.7348 37.608H42.9428C42.8148 38.0347 42.5695 38.3867 42.2068 38.664C41.8441 38.936 41.3988 39.072 40.8708 39.072C40.4441 39.072 40.0601 38.9787 39.7188 38.792C39.3828 38.6 39.1188 38.3307 38.9268 37.984C38.7401 37.6373 38.6468 37.2373 38.6468 36.784C38.6468 36.3253 38.7401 35.9227 38.9268 35.576C39.1135 35.2293 39.3748 34.9627 39.7108 34.776C40.0468 34.5893 40.4335 34.496 40.8708 34.496C41.2921 34.496 41.6681 34.5867 41.9988 34.768C42.3348 34.9493 42.5935 35.208 42.7748 35.544C42.9615 35.8747 43.0548 36.256 43.0548 36.688ZM41.8948 36.368C41.8895 36.08 41.7855 35.8507 41.5828 35.68C41.3801 35.504 41.1321 35.416 40.8388 35.416C40.5615 35.416 40.3268 35.5013 40.1348 35.672C39.9481 35.8373 39.8335 36.0693 39.7908 36.368H41.8948ZM49.3763 34.504C49.9203 34.504 50.3576 34.672 50.6883 35.008C51.0243 35.3387 51.1923 35.8027 51.1923 36.4V39H50.0723V36.552C50.0723 36.2053 49.9843 35.9413 49.8083 35.76C49.6323 35.5733 49.3923 35.48 49.0883 35.48C48.7843 35.48 48.5416 35.5733 48.3603 35.76C48.1843 35.9413 48.0963 36.2053 48.0963 36.552V39H46.9763V36.552C46.9763 36.2053 46.8883 35.9413 46.7123 35.76C46.5363 35.5733 46.2963 35.48 45.9923 35.48C45.683 35.48 45.4376 35.5733 45.2563 35.76C45.0803 35.9413 44.9923 36.2053 44.9923 36.552V39H43.8723V34.568H44.9923V35.104C45.1363 34.9173 45.3203 34.7707 45.5443 34.664C45.7736 34.5573 46.0243 34.504 46.2963 34.504C46.643 34.504 46.9523 34.5787 47.2243 34.728C47.4963 34.872 47.707 35.08 47.8563 35.352C48.0003 35.096 48.2083 34.8907 48.4803 34.736C48.7576 34.5813 49.0563 34.504 49.3763 34.504ZM52.8231 34.04C52.6258 34.04 52.4605 33.9787 52.3271 33.856C52.1991 33.728 52.1351 33.5707 52.1351 33.384C52.1351 33.1973 52.1991 33.0427 52.3271 32.92C52.4605 32.792 52.6258 32.728 52.8231 32.728C53.0205 32.728 53.1831 32.792 53.3111 32.92C53.4445 33.0427 53.5111 33.1973 53.5111 33.384C53.5111 33.5707 53.4445 33.728 53.3111 33.856C53.1831 33.9787 53.0205 34.04 52.8231 34.04ZM53.3751 34.568V39H52.2551V34.568H53.3751ZM54.1937 36.784C54.1937 36.3253 54.287 35.9253 54.4737 35.584C54.6604 35.2373 54.919 34.9707 55.2497 34.784C55.5804 34.592 55.959 34.496 56.3857 34.496C56.935 34.496 57.3884 34.6347 57.7457 34.912C58.1084 35.184 58.351 35.568 58.4737 36.064H57.2657C57.2017 35.872 57.0924 35.7227 56.9377 35.616C56.7884 35.504 56.6017 35.448 56.3777 35.448C56.0577 35.448 55.8044 35.5653 55.6177 35.8C55.431 36.0293 55.3377 36.3573 55.3377 36.784C55.3377 37.2053 55.431 37.5333 55.6177 37.768C55.8044 37.9973 56.0577 38.112 56.3777 38.112C56.831 38.112 57.127 37.9093 57.2657 37.504H58.4737C58.351 37.984 58.1084 38.3653 57.7457 38.648C57.383 38.9307 56.9297 39.072 56.3857 39.072C55.959 39.072 55.5804 38.9787 55.2497 38.792C54.919 38.6 54.6604 38.3333 54.4737 37.992C54.287 37.6453 54.1937 37.2427 54.1937 36.784ZM62.3204 34.32V35.72H64.2004V36.608H62.3204V38.088H64.4404V39H61.2004V33.408H64.4404V34.32H62.3204ZM67.9063 39L66.9943 37.624L66.1863 39H64.9863L66.4343 36.776L64.9703 34.568H66.2343L67.1383 35.936L67.9543 34.568H69.1543L67.6983 36.776L69.1703 39H67.9063ZM69.4906 36.784C69.4906 36.3253 69.5839 35.9253 69.7706 35.584C69.9572 35.2373 70.2159 34.9707 70.5466 34.784C70.8772 34.592 71.2559 34.496 71.6826 34.496C72.2319 34.496 72.6852 34.6347 73.0426 34.912C73.4052 35.184 73.6479 35.568 73.7706 36.064H72.5626C72.4986 35.872 72.3892 35.7227 72.2346 35.616C72.0852 35.504 71.8986 35.448 71.6746 35.448C71.3546 35.448 71.1012 35.5653 70.9146 35.8C70.7279 36.0293 70.6346 36.3573 70.6346 36.784C70.6346 37.2053 70.7279 37.5333 70.9146 37.768C71.1012 37.9973 71.3546 38.112 71.6746 38.112C72.1279 38.112 72.4239 37.9093 72.5626 37.504H73.7706C73.6479 37.984 73.4052 38.3653 73.0426 38.648C72.6799 38.9307 72.2266 39.072 71.6826 39.072C71.2559 39.072 70.8772 38.9787 70.5466 38.792C70.2159 38.6 69.9572 38.3333 69.7706 37.992C69.5839 37.6453 69.4906 37.2427 69.4906 36.784ZM78.7111 36.688C78.7111 36.848 78.7004 36.992 78.6791 37.12H75.4391C75.4657 37.44 75.5777 37.6907 75.7751 37.872C75.9724 38.0533 76.2151 38.144 76.5031 38.144C76.9191 38.144 77.2151 37.9653 77.3911 37.608H78.5991C78.4711 38.0347 78.2257 38.3867 77.8631 38.664C77.5004 38.936 77.0551 39.072 76.5271 39.072C76.1004 39.072 75.7164 38.9787 75.3751 38.792C75.0391 38.6 74.7751 38.3307 74.5831 37.984C74.3964 37.6373 74.3031 37.2373 74.3031 36.784C74.3031 36.3253 74.3964 35.9227 74.5831 35.576C74.7697 35.2293 75.0311 34.9627 75.3671 34.776C75.7031 34.5893 76.0897 34.496 76.5271 34.496C76.9484 34.496 77.3244 34.5867 77.6551 34.768C77.9911 34.9493 78.2497 35.208 78.4311 35.544C78.6177 35.8747 78.7111 36.256 78.7111 36.688ZM77.5511 36.368C77.5457 36.08 77.4417 35.8507 77.2391 35.68C77.0364 35.504 76.7884 35.416 76.4951 35.416C76.2177 35.416 75.9831 35.5013 75.7911 35.672C75.6044 35.8373 75.4897 36.0693 75.4471 36.368H77.5511ZM80.6486 33.08V39H79.5286V33.08H80.6486ZM82.8751 33.08V39H81.7551V33.08H82.8751ZM88.1017 36.688C88.1017 36.848 88.091 36.992 88.0697 37.12H84.8297C84.8564 37.44 84.9684 37.6907 85.1657 37.872C85.363 38.0533 85.6057 38.144 85.8937 38.144C86.3097 38.144 86.6057 37.9653 86.7817 37.608H87.9897C87.8617 38.0347 87.6164 38.3867 87.2537 38.664C86.891 38.936 86.4457 39.072 85.9177 39.072C85.491 39.072 85.107 38.9787 84.7657 38.792C84.4297 38.6 84.1657 38.3307 83.9737 37.984C83.787 37.6373 83.6937 37.2373 83.6937 36.784C83.6937 36.3253 83.787 35.9227 83.9737 35.576C84.1604 35.2293 84.4217 34.9627 84.7577 34.776C85.0937 34.5893 85.4804 34.496 85.9177 34.496C86.339 34.496 86.715 34.5867 87.0457 34.768C87.3817 34.9493 87.6404 35.208 87.8217 35.544C88.0084 35.8747 88.1017 36.256 88.1017 36.688ZM86.9417 36.368C86.9364 36.08 86.8324 35.8507 86.6297 35.68C86.427 35.504 86.179 35.416 85.8857 35.416C85.6084 35.416 85.3737 35.5013 85.1817 35.672C84.995 35.8373 84.8804 36.0693 84.8377 36.368H86.9417ZM91.3752 34.504C91.9032 34.504 92.3299 34.672 92.6552 35.008C92.9805 35.3387 93.1432 35.8027 93.1432 36.4V39H92.0232V36.552C92.0232 36.2 91.9352 35.9307 91.7592 35.744C91.5832 35.552 91.3432 35.456 91.0392 35.456C90.7299 35.456 90.4845 35.552 90.3032 35.744C90.1272 35.9307 90.0392 36.2 90.0392 36.552V39H88.9192V34.568H90.0392V35.12C90.1885 34.928 90.3779 34.7787 90.6072 34.672C90.8419 34.56 91.0979 34.504 91.3752 34.504ZM93.9202 36.784C93.9202 36.3253 94.0136 35.9253 94.2003 35.584C94.3869 35.2373 94.6456 34.9707 94.9763 34.784C95.3069 34.592 95.6856 34.496 96.1123 34.496C96.6616 34.496 97.1149 34.6347 97.4723 34.912C97.8349 35.184 98.0776 35.568 98.2003 36.064H96.9923C96.9283 35.872 96.8189 35.7227 96.6643 35.616C96.5149 35.504 96.3283 35.448 96.1043 35.448C95.7843 35.448 95.5309 35.5653 95.3443 35.8C95.1576 36.0293 95.0643 36.3573 95.0643 36.784C95.0643 37.2053 95.1576 37.5333 95.3443 37.768C95.5309 37.9973 95.7843 38.112 96.1043 38.112C96.5576 38.112 96.8536 37.9093 96.9923 37.504H98.2003C98.0776 37.984 97.8349 38.3653 97.4723 38.648C97.1096 38.9307 96.6563 39.072 96.1123 39.072C95.6856 39.072 95.3069 38.9787 94.9763 38.792C94.6456 38.6 94.3869 38.3333 94.2003 37.992C94.0136 37.6453 93.9202 37.2427 93.9202 36.784ZM103.141 36.688C103.141 36.848 103.13 36.992 103.109 37.12H99.8688C99.8954 37.44 100.007 37.6907 100.205 37.872C100.402 38.0533 100.645 38.144 100.933 38.144C101.349 38.144 101.645 37.9653 101.821 37.608H103.029C102.901 38.0347 102.655 38.3867 102.293 38.664C101.93 38.936 101.485 39.072 100.957 39.072C100.53 39.072 100.146 38.9787 99.8048 38.792C99.4688 38.6 99.2048 38.3307 99.0128 37.984C98.8261 37.6373 98.7327 37.2373 98.7327 36.784C98.7327 36.3253 98.8261 35.9227 99.0128 35.576C99.1994 35.2293 99.4608 34.9627 99.7968 34.776C100.133 34.5893 100.519 34.496 100.957 34.496C101.378 34.496 101.754 34.5867 102.085 34.768C102.421 34.9493 102.679 35.208 102.861 35.544C103.047 35.8747 103.141 36.256 103.141 36.688ZM101.981 36.368C101.975 36.08 101.871 35.8507 101.669 35.68C101.466 35.504 101.218 35.416 100.925 35.416C100.647 35.416 100.413 35.5013 100.221 35.672C100.034 35.8373 99.9194 36.0693 99.8768 36.368H101.981Z" fill="black"/>
</svg>
