<svg width="20" height="21" viewBox="0 0 20 21" fill="none" xmlns="http://www.w3.org/2000/svg">
<g clip-path="url(#clip0_5_37)">
<path d="M4.69092 20.5C4.45913 20.4512 4.22734 20.417 4.0054 20.3535C2.56532 19.9533 1.65787 18.8549 1.59375 17.3562C1.52964 15.8088 1.69732 14.2857 2.29407 12.8407C2.67875 11.9083 3.23111 11.098 4.16815 10.605C4.74517 10.3023 5.36165 10.1558 6.00772 10.1705C6.20992 10.1754 6.42692 10.2779 6.6094 10.3755C6.91024 10.5366 7.18642 10.7368 7.47739 10.9125C9.169 11.9474 10.8557 11.9425 12.5473 10.9076C12.784 10.766 13.0207 10.6245 13.2427 10.4634C13.6471 10.1656 14.0909 10.1266 14.5693 10.1949C15.8812 10.3853 16.8034 11.098 17.4298 12.2305C17.9871 13.241 18.2386 14.3394 18.3471 15.4719C18.4063 16.0528 18.4309 16.6386 18.426 17.2244C18.4063 18.9672 17.193 20.2657 15.4423 20.4561C15.3979 20.4609 15.3584 20.4805 15.314 20.4902C11.7681 20.5 8.23196 20.5 4.69092 20.5Z" fill="#EE4600"/>
<path d="M9.86931 10.1363C7.15682 10.1217 4.99176 7.95912 5.01149 5.29864C5.03121 2.62351 7.20614 0.5 9.89397 0.5C12.5325 0.5 14.7666 2.66744 14.7419 5.33281C14.7173 8.00794 12.5423 10.151 9.86931 10.1363Z" fill="#FFC69F"/>
</g>
<defs>
<clipPath id="clip0_5_37">
<rect width="20" height="20" fill="white" transform="translate(0 0.5)"/>
</clipPath>
</defs>
</svg>
